<svg xmlns="http://www.w3.org/2000/svg" viewBox="0 0 1064 173.17"><defs><style>.a{fill:#04b3fe;}.b{fill:#fff;}.c{fill:#29abe2;}</style></defs><path class="a" d="M35.43,68.88c-9,17.46-9.8,35.29-1.63,53.22,9.64,21.15,32.34,36.32,59.62,33.56a57.36,57.36,0,0,0,31.42-13.43,45.88,45.88,0,0,0,10.64-12.57c-9.81,10.55-21.62,17.63-35.75,20.32-14.38,2.73-27.95,0-40.47-7.53a55.33,55.33,0,0,1-20.59-21.71C29.75,104,29,86.64,35.43,68.88Z"/><path class="b" d="M163.77,47.75A40.7,40.7,0,0,0,167,44.37a2,2,0,0,0,0-1.89c-2.6-3.66-5.3-7.24-8-10.84a1.55,1.55,0,0,0-2.29-.44c-2.86,1.5-5.77,2.93-8.69,4.31a1.72,1.72,0,0,1-1.5-.15q-5.79-4.78-11.46-9.69a2,2,0,0,1-.58-1.63c.79-3.19,1.77-6.33,2.52-9.52a2.24,2.24,0,0,0-.79-1.95c-3.85-2-7.77-4-11.68-5.89a1.87,1.87,0,0,0-2.73.66c-1.69,2.48-3.55,4.85-5.2,7.36-.71,1.09-1.44,1.1-2.54.82-4.21-1.08-8.44-2.12-12.69-3a1.77,1.77,0,0,1-1.66-1.66c-.53-3-1.17-6-1.76-9a1.89,1.89,0,0,0-2-1.8c-4.43,0-8.86,0-13.29.06a2.06,2.06,0,0,0-1.44,1.16,16,16,0,0,0-.68,3.1c-.25,1.34.14,1.92,1.67,1.88,3.78-.11,7.56-.08,11.34,0a2.33,2.33,0,0,1,1.81,1.13c.74,2.91,1.35,5.86,1.82,8.83a2.4,2.4,0,0,0,2.29,2.34c4.21.86,8.38,1.9,12.54,3a2.25,2.25,0,0,0,2.86-1c1.66-2.43,3.36-4.84,5.15-7.18.36-.46,1.36-1,1.76-.77,4.06,1.89,8.07,3.88,12.05,5.93a1.77,1.77,0,0,1,.7,1.54,88.41,88.41,0,0,1-2.39,8.83c-.55,1.58-.08,2.31,1.09,3.25,3.48,2.8,6.88,5.71,10.25,8.66a1.93,1.93,0,0,0,2.49.46c2.67-1.37,5.4-2.63,8.06-4a1.59,1.59,0,0,1,2.39.59c.76,1.12,1.55,2.23,2.36,3.31C160.37,43.33,162,45.46,163.77,47.75Z"/><path class="b" d="M126,112.94l.47.27a10.15,10.15,0,0,0,1.06-1.23,39.79,39.79,0,0,0,5.64-14.76c2.13-12.65-.51-24.25-8.34-34.51A42,42,0,0,0,97,46.15a42.2,42.2,0,0,0-28,5.1,42.63,42.63,0,0,0-15.9,15.48,7.29,7.29,0,0,0-.5,1.56l.45.22A42.69,42.69,0,0,1,68.64,54.76a43.61,43.61,0,0,1,20.44-4.7A41.84,41.84,0,0,1,127,75.4C132.31,88,131.52,100.54,126,112.94Z"/><path class="b" d="M180.52,83.27c0-.36-.07-.6-.11-.83q-1-6.28-2-12.56a2,2,0,0,0-2.23-1.8c-2.89,0-5.78-.2-8.67-.22a2.1,2.1,0,0,1-2.19-1.63c-1.14-3-2.28-6.06-3.59-9-1.4-3.16-1.42-3.06-3.83-.55-1.1,1.15-1,2-.36,3.39,1.81,3.83,3.45,7.74,5,11.7.5,1.33,1.08,1.93,2.49,1.92,2.9,0,5.79.11,8.68.11,1,0,1.49.22,1.65,1.32.42,2.8,1,5.57,1.46,8.35.14.83.06,1.86,1.3,1.62C179.12,84.86,180.52,84.85,180.52,83.27Z"/><path class="b" d="M47.19,16.62c3.22-1.54,6.19-3,9.15-4.39,2.13-1,2.3-1,3.7,1,1.56,2.21,3.08,4.46,4.73,6.6a2.44,2.44,0,0,0,1.84.94c3.35-.67,6.67-1.48,10-2.34a2,2,0,0,0,1.18-1.25c.31-1.36.4-2.77.61-4.43a9.58,9.58,0,0,0-1.79,0c-2.59.52-5.17,1.16-7.78,1.59a2.47,2.47,0,0,1-2-.73c-1.87-2.35-3.62-4.8-5.33-7.27a1.88,1.88,0,0,0-2.72-.73C54.85,7.57,51,9.55,47,11.42a1.48,1.48,0,0,0-.93,2C46.39,14.4,46.77,15.38,47.19,16.62Z"/><path class="a" d="M58.34,87.63c-4.74,14.26,2.94,32,19.53,37.69,12.65,4.35,27.21-1.35,32.49-9.28-11.31,9.2-23.58,11.42-36.24,4.54S57,101.82,58.34,87.63Z"/><path class="b" d="M47.26,28.66c-.15-.65-.23-.93-.29-1.22-.49-2.36-.94-2.53-2.81-1.07a43.05,43.05,0,0,0-3.72,3c-1.22,1.2-2.24,1.12-3.56.19-2.17-1.51-4.44-2.89-6.66-4.34-1.26-.82-2.41-1.22-3.46.38a23.89,23.89,0,0,1-2.16,2.57q-3,3.4-6,6.78a1.76,1.76,0,0,0,.08,2.78c1.09,1,1.54-.13,2.08-.72,1.69-1.89,3.38-3.78,5-5.73a1.52,1.52,0,0,1,2.39-.33c2.34,1.58,4.81,3,7.15,4.57a2.45,2.45,0,0,0,3.33-.08c2.38-1.84,4.88-3.52,7.28-5.32A9.37,9.37,0,0,0,47.26,28.66Z"/><path class="b" d="M71.32,76.9l.33.42c.3-.27.64-.51.92-.8a21.44,21.44,0,0,1,11-6.32c8.94-2,16.5.42,22.35,7.4,5.21,6.21,6.06,13.45,4,21.15a9.63,9.63,0,0,0-.12,1.71h.53c3.48-7.83,3.42-15.59-1.33-22.92-4.86-7.5-12-11.07-20.89-10.4A21.33,21.33,0,0,0,71.32,76.9Z"/><path class="b" d="M176.69,117.79c.37-1,.82-2.48,1.39-3.89a1.91,1.91,0,0,0-1.06-2.74c-2.24-1.18-4.38-2.56-6.67-3.63-1.87-.88-2.36-2.1-2.11-4.09.35-2.68.39-5.41.49-8.11,0-.36-.41-.74-.63-1.11a7.45,7.45,0,0,0-1.08.93,1.64,1.64,0,0,0-.18.85c-.28,4.47-.61,8.93-.76,13.4a3,3,0,0,0,1.2,2.22c2.24,1.4,4.67,2.5,6.93,3.87A16.23,16.23,0,0,1,176.69,117.79Z"/><path class="a" d="M18.24,61.06c-1.15,0-2,0-2.92,0-2.35-.17-4.69-.4-7-.59-3.7-.29-2.82-.38-4,2.91a1.18,1.18,0,0,0,1.12,1.74c3,.32,6,.62,9,.86a1.75,1.75,0,0,0,1.41-.49C16.71,64,17.47,62.49,18.24,61.06Z"/><path class="b" d="M160.11,149.75a6.51,6.51,0,0,0-.39-1c-1.62-2.37-3.23-4.77-4.94-7.08-.17-.23-1.22-.18-1.51.1-1.44,1.4-1.58,2.79-.44,4.54s2.2,3.19,3.4,4.71c.38.48,1.35,1.13,1.54,1A18.52,18.52,0,0,0,160.11,149.75Z"/><path class="a" d="M9,99.84c0-1.77-.29-2.07-1.83-1.56-2,.66-3.95,1.48-5.95,2.13-1.67.54-1.26,1.82-1,2.89.27,1.27,1.32.94,2.15.66,1.65-.57,3.25-1.34,4.93-1.8A2.07,2.07,0,0,0,9,99.84Z"/><path class="b" d="M130.33,164.64c-1.69.47-2.2,1.35-2,2.63a47.21,47.21,0,0,0,1.12,5.15c.12.4,1.06.81,1.57.75.36,0,.9-.88.88-1.34a19.51,19.51,0,0,0-.54-3.64C131.13,167,130.71,165.88,130.33,164.64Z"/><path class="a" d="M19,135.62l-.67-.53c-1.53,1.63-3.07,3.24-4.55,4.91-.15.17.13.71.21,1.08.35-.1.82-.11,1-.34,1.14-1.18,2.25-2.39,3.3-3.65A6.17,6.17,0,0,0,19,135.62Z"/><path class="b" d="M266.41,67.46,300,4.33H317.2V80.46H304.77V17.34L272,80.46h-11.1L228.17,18.62V80.46H215.74V4.33h17.48Z"/><path class="b" d="M337.61,80.46V4.33h67.32v9.81H350V36.21h53.25V46H350V70.66H406.1v9.8Z"/><path class="b" d="M423,80.46V4.33h12.43V70.66h50.91v9.8Z"/><path class="b" d="M498.76,80.46V4.33h46.56q25.8,0,25.8,19.09,0,12-12.19,16.1v.21Q574.76,43,574.76,58.5a19.82,19.82,0,0,1-6.45,15q-7.27,6.94-20.06,6.93Zm12.43-44.67h33.9c4.37,0,7.78-1,10.2-3.09a9.25,9.25,0,0,0,3.4-7.57q0-11-14.31-11H511.19Zm0,34.87h33.66q17.48,0,17.48-12.91,0-12.15-16.42-12.15H511.19Z"/><path class="b" d="M587.78,42.4q0-16.42,10.67-27.3Q610.89,2.41,634.34,2.41T670.23,15.1Q680.91,26,680.91,42.4T670.23,69.7Q657.8,82.39,634.34,82.38T598.45,69.7Q587.79,58.81,587.78,42.4Zm80.69,0q0-14.51-9.85-22.61-9.27-7.56-24.28-7.57t-24.28,7.57q-9.84,8.12-9.85,22.61T610.06,65q9.27,7.57,24.28,7.57T658.62,65Q668.48,56.9,668.47,42.4Z"/><path class="b" d="M696.51,51.68V4.33h12.43V53.06q0,19.51,25.45,19.51t25.45-19.51V4.33h12.44V51.68q0,30.71-37.89,30.7T696.51,51.68Z"/><path class="b" d="M792.92,80.46V4.33h51.84q11.61,0,17.71,6.51a19.17,19.17,0,0,1,5.16,13.75q0,14.72-14.07,18.77v.21a12.4,12.4,0,0,1,8.68,5.07,20.16,20.16,0,0,1,3.51,11.14q.59,11,1.18,14.5a12.43,12.43,0,0,0,2.81,6.18H856.6a8.42,8.42,0,0,1-1.87-4.58c-.16-1.14-.39-4.44-.71-9.92q-.59-9.91-4.39-13.86c-2.55-2.63-6.47-3.94-11.79-3.94H805.35v32.3Zm12.43-42.11h34.72q15.12,0,15.13-12T840.42,14.14H805.35Z"/><path class="b" d="M950.74,80.46l-54-60.56V80.46H884.28V4.33h14.48l54,60.57V4.33h12.43V80.46Z"/><path class="b" d="M986.09,80.46V4.33h67.32v9.81H998.52V36.21h53.25V46H998.52V70.66h56.06v9.8Z"/><path class="c" d="M257.65,167l-7.22-15H222.66l-7.22,15h-9.05L232,115.52h9.6L267.25,167Zm-10.32-21.64-10.87-22.79-10.63,22.79Z"/><path class="c" d="M306.2,147.55v-32h8.41v33q0,13.2,17.22,13.2t17.22-13.2v-33h8.41v32q0,20.76-25.63,20.77T306.2,147.55Z"/><path class="c" d="M418.24,167V122.16H396.81v-6.64h51.26v6.64H426.65V167Z"/><path class="c" d="M484.49,141.27q0-11.1,7.22-18.47,8.4-8.58,24.27-8.58t24.28,8.58q7.23,7.36,7.22,18.47t-7.22,18.47q-8.4,8.58-24.28,8.58t-24.27-8.58Q484.48,152.38,484.49,141.27Zm54.58,0q0-9.81-6.66-15.29-6.27-5.12-16.43-5.12T499.56,126q-6.66,5.47-6.66,15.29t6.66,15.29q6.27,5.13,16.42,5.12t16.43-5.12Q539.07,151.08,539.07,141.27Z"/><path class="c" d="M661.74,167,646,124.32h-.16L630.24,167H621l-18.65-51.5h9.12L626,157.36h.16l15.16-41.84h10l15.55,41.84H667l14.44-41.84h8.73L670.94,167Z"/><path class="c" d="M725.92,141.27q0-11.1,7.22-18.47,8.42-8.58,24.28-8.58t24.28,8.58q7.21,7.36,7.22,18.47t-7.22,18.47q-8.4,8.58-24.28,8.58t-24.28-8.58Q725.93,152.38,725.92,141.27Zm54.59,0q0-9.81-6.66-15.29-6.27-5.12-16.43-5.12T741,126q-6.66,5.47-6.67,15.29T741,156.56q6.27,5.13,16.42,5.12t16.43-5.12Q780.51,151.08,780.51,141.27Z"/><path class="c" d="M831.69,167v-51.5h35.07q7.85,0,12,4.4a13,13,0,0,1,3.49,9.3q0,10-9.52,12.7v.14a8.38,8.38,0,0,1,5.87,3.43A13.67,13.67,0,0,1,881,153c.26,4.95.53,8.22.79,9.81a8.43,8.43,0,0,0,1.91,4.18h-8.89a5.71,5.71,0,0,1-1.27-3.1q-.15-1.15-.48-6.71-.39-6.71-3-9.38t-8-2.66h-22V167Zm8.41-28.49h23.48q10.24,0,10.24-8.15t-10-8.22H840.1Z"/><path class="c" d="M967.12,167,944,141.92l-10.32,8.29V167h-8.41v-51.5h8.41v25.89l31.66-25.89h11.9l-26.9,21.35L978.71,167Z"/><path class="c" d="M1013.62,150.07H1022a9.77,9.77,0,0,0,6,9.23q4.68,2.38,12.3,2.38,6.9,0,11.11-2.3t4.2-6.42q0-6.06-10.55-7.65l-12.86-1.95q-16.82-2.52-16.82-13.49a13.3,13.3,0,0,1,6-11.39q6-4.26,16.71-4.26,9.82,0,16,3.39a14.87,14.87,0,0,1,8.09,12.77h-8.41q-1.66-9.52-16.82-9.52a18.46,18.46,0,0,0-8.88,1.94q-4.29,2.31-4.29,6.5,0,5.34,9.29,6.78l13.88,2.16q17.05,2.67,17.06,13.2a14.27,14.27,0,0,1-7.85,13.35q-6.44,3.53-16.51,3.53-11.1,0-17.77-3.82Q1013.62,159.88,1013.62,150.07Z"/></svg>